<svg width="24" height="25" viewBox="0 0 24 25" fill="none" xmlns="http://www.w3.org/2000/svg">
<path fill-rule="evenodd" clip-rule="evenodd" d="M11.1639 3.975C11.5355 3.34167 12.4645 3.34167 12.8361 3.975L22.8692 21.075C23.2408 21.7083 22.7763 22.5 22.0331 22.5H1.96688C1.22368 22.5 0.759187 21.7083 1.13078 21.075L11.1639 3.975ZM11 10.5C11 9.94772 11.4477 9.5 12 9.5C12.5523 9.5 13 9.94772 13 10.5V14.5C13 15.0523 12.5523 15.5 12 15.5C11.4477 15.5 11 15.0523 11 14.5V10.5ZM12 17.5C11.4477 17.5 11 17.9477 11 18.5C11 19.0523 11.4477 19.5 12 19.5C12.5523 19.5 13 19.0523 13 18.5C13 17.9477 12.5523 17.5 12 17.5Z" fill="#FFA132"/>
</svg>
